<svg width="32" height="32" viewBox="0 0 32 32" fill="none" xmlns="http://www.w3.org/2000/svg">
<g clip-path="url(#clip0_2_16)">
<path d="M22.9999 2.46762C21.6323 2.48085 20.2868 2.81421 19.0712 3.44098C17.8557 4.06775 16.8038 4.97052 15.9999 6.07695C15.196 4.97052 14.1441 4.06775 12.9285 3.44098C11.7129 2.81421 10.3675 2.48085 8.99986 2.46762C6.52222 2.56656 4.18456 3.64253 2.49802 5.46024C0.811482 7.27795 -0.0867023 9.68952 -0.000135145 12.1676C-0.000135145 18.237 6.23187 24.7343 11.4665 29.117C12.7376 30.1858 14.3451 30.7718 16.0059 30.7718C17.6666 30.7718 19.2741 30.1858 20.5452 29.117C25.7745 24.7343 32.0119 18.237 32.0119 12.1676C32.0984 9.68752 31.1986 7.2742 29.5095 5.45614C27.8204 3.63809 25.4796 2.56347 22.9999 2.46762ZM17.9692 26.0516C17.4178 26.5159 16.7201 26.7705 15.9992 26.7705C15.2783 26.7705 14.5806 26.5159 14.0292 26.0516C7.65587 20.7076 3.99987 15.6476 3.99987 12.1676C3.91485 10.7506 4.39224 9.35719 5.32837 8.29C6.26451 7.2228 7.58382 6.56795 8.99986 6.46762C10.4159 6.56795 11.7352 7.2228 12.6714 8.29C13.6075 9.35719 14.0849 10.7506 13.9999 12.1676C13.9999 12.6981 14.2106 13.2068 14.5857 13.5818C14.9607 13.9569 15.4694 14.1676 15.9999 14.1676C16.5303 14.1676 17.039 13.9569 17.4141 13.5818C17.7892 13.2068 17.9999 12.6981 17.9999 12.1676C17.9149 10.7506 18.3922 9.35719 19.3284 8.29C20.2645 7.2228 21.5838 6.56795 22.9999 6.46762C24.4159 6.56795 25.7352 7.2228 26.6714 8.29C27.6075 9.35719 28.0849 10.7506 27.9999 12.1676C27.9999 15.6476 24.3439 20.7076 17.9692 26.0516Z" fill="black"/>
</g>
<defs>
<clipPath id="clip0_2_16">
<rect width="32" height="32" fill="white"/>
</clipPath>
</defs>
</svg>
