<svg width="42" height="43" viewBox="0 0 42 43" fill="none" xmlns="http://www.w3.org/2000/svg">
<g clip-path="url(#clip0_2_121)">
<path d="M35.0631 43.0003H6.9371C5.75443 43.0031 4.59078 42.6956 3.55718 42.1072C2.52358 41.5187 1.65451 40.6688 1.03289 39.6388C0.411276 38.6087 0.0578465 37.4327 0.00632698 36.223C-0.0451926 35.0133 0.206916 33.8103 0.7386 32.7287L14.8033 3.92229C15.3395 2.81244 16.1519 1.86687 17.1587 1.18085C18.1655 0.494827 19.3311 0.0925894 20.5381 0.0146628C21.9 -0.0740672 23.2572 0.249044 24.4411 0.94381C25.6251 1.63858 26.5834 2.67434 27.1968 3.92229L41.2616 32.7287C41.7902 33.8106 42.0399 35.0129 41.987 36.2214C41.934 37.4299 41.5803 38.6045 40.9592 39.6336C40.3382 40.6628 39.4705 41.5123 38.4385 42.1015C37.4066 42.6908 36.2447 43.0002 35.0631 43.0003V43.0003Z" fill="#001030"/>
</g>
<g clip-path="url(#clip1_2_121)">
<path d="M27.0269 34.0003H14.9729C14.466 34.0015 13.9673 33.8657 13.5244 33.6056C13.0814 33.3456 12.7089 32.9701 12.4425 32.515C12.1761 32.0598 12.0247 31.5402 12.0026 31.0057C11.9805 30.4711 12.0885 29.9396 12.3164 29.4617L18.3442 16.7333C18.5739 16.2429 18.9221 15.825 19.3536 15.5219C19.7851 15.2188 20.2846 15.0411 20.8019 15.0066C21.3856 14.9674 21.9672 15.1102 22.4746 15.4172C22.982 15.7242 23.3927 16.1818 23.6557 16.7333L29.6834 29.4617C29.9099 29.9397 30.017 30.471 29.9943 31.005C29.9716 31.5389 29.82 32.058 29.5538 32.5127C29.2876 32.9674 28.9158 33.3428 28.4735 33.6032C28.0313 33.8635 27.5333 34.0002 27.0269 34.0003V34.0003Z" fill="#7AEAE3"/>
</g>
<defs>
<clipPath id="clip0_2_121">
<rect width="42" height="43" fill="white"/>
</clipPath>
<clipPath id="clip1_2_121">
<rect width="18" height="19" fill="white" transform="translate(12 15)"/>
</clipPath>
</defs>
</svg>
